<svg width="196" height="47" viewBox="0 0 196 47" fill="none" xmlns="http://www.w3.org/2000/svg">
<g filter="url(#filter0_d)">
<path d="M184.492 24.0513C183.247 24.0513 182.332 22.973 182.332 21.4697C182.332 20.0101 183.273 18.8887 184.449 18.8887C185.959 18.8887 186.603 19.8351 186.603 21.4697C186.603 23.1698 186.01 24.0513 184.492 24.0513ZM185.982 15.7932C184.972 15.8097 183.992 16.0321 183.168 16.4318C182.344 16.8316 181.714 17.3904 181.358 18.0366C180.991 18.5744 181.009 18.7322 180.741 18.7322C180.353 18.7322 180.675 18.3004 180.849 17.792C181.058 17.2143 181.086 16.6131 180.931 16.0276H176.955V29.0649H182.382V24.9314C182.737 25.3879 183.264 25.7713 183.909 26.0419C184.553 26.3126 185.292 26.4607 186.048 26.471C189.972 26.471 191.947 24.2016 191.947 21.1362C191.947 17.6614 189.583 15.7918 185.981 15.7918L185.982 15.7932ZM145.463 16.0419V26.2462H150.89V16.0419C150.044 16.3124 149.115 16.4376 148.182 16.4068C147.246 16.4367 146.313 16.3115 145.463 16.0419ZM138.736 15.7953C135.594 15.7953 134.399 17.8295 134.158 18.1828C133.917 18.5361 133.797 18.7391 133.6 18.735C133.257 18.7274 133.496 18.301 133.63 18.0257C134.154 16.8699 134.42 15.6666 134.418 14.4566C134.464 13.9445 134.388 13.4308 134.192 12.9355H129.507V26.2468H134.934V21.1642C134.934 20.336 135.417 18.8894 136.785 18.8894C137.917 18.8894 138.272 19.4627 138.272 20.6175V26.2475H143.699V20.8403C143.699 18.2177 143.063 15.7966 138.736 15.7966V15.7953ZM119.243 21.1382C119.243 20.2198 120.492 19.3841 122.784 19.3841C124.538 19.4155 126.248 19.7635 127.742 20.3927V16.8394C127.742 16.8394 126.155 15.7953 122.253 15.7953C118.14 15.7953 114.715 17.44 114.715 20.9797C114.715 24.5194 117.823 26.4819 122.242 26.4819C124.243 26.5015 126.191 26.0433 127.751 25.1863V21.8113C126.287 22.4879 124.575 22.8719 122.809 22.9204C120.186 22.9204 119.242 22.0956 119.242 21.1389L119.243 21.1382ZM107.843 12.9355H113.27V26.2468H107.843V12.9355ZM91.031 23.8565C89.733 24.0615 89.061 23.7882 89.061 23.2005C89.061 22.3956 90.28 22.073 92.019 22.073C92.786 22.073 93.507 22.1181 93.507 22.1181C93.3281 22.5222 93.0098 22.891 92.579 23.1935C92.1481 23.496 91.6172 23.7234 91.031 23.8565ZM92.352 15.7953C89.8897 15.7879 87.4542 16.1441 85.212 16.8394V19.9096C85.212 19.9096 88.506 18.6154 91.178 18.6154C93.311 18.6154 93.573 19.4012 93.476 20.0538C92.6536 19.9557 91.8181 19.9184 90.984 19.9424C86.561 19.9424 84.328 21.3159 84.328 23.519C84.328 25.6086 86.837 26.4819 88.952 26.4819C89.9754 26.5083 90.9866 26.3231 91.8533 25.9504C92.7201 25.5777 93.4021 25.0348 93.81 24.393C94.099 23.9269 94.152 23.6126 94.412 23.6126C94.708 23.6126 94.608 23.8381 94.594 24.3021C94.5426 24.9541 94.6165 25.6079 94.814 26.2468H98.904V21.2189C98.904 18.0796 97.279 15.7953 92.353 15.7953H92.352ZM170.223 15.7932C169.308 15.8247 168.427 16.0426 167.695 16.4189C166.962 16.7952 166.411 17.3127 166.113 17.9047C165.81 18.3673 165.726 18.7329 165.48 18.7329C165.134 18.7329 165.365 18.3291 165.099 17.7106C164.894 17.1269 164.39 16.6127 163.678 16.261C162.966 15.9093 162.093 15.7433 161.218 15.7932C158.71 15.7932 157.636 17.2412 157.127 18.0366C156.779 18.5805 156.778 18.7322 156.51 18.7322C156.122 18.7322 156.444 18.3004 156.618 17.792C156.827 17.2143 156.855 16.6131 156.7 16.0276H152.724V26.2434H158.151V21.1608C158.151 20.1583 158.765 18.886 159.817 18.886C161.032 18.886 161.276 19.5242 161.276 20.705V26.2462H166.725V21.1608C166.725 20.2684 167.258 18.886 168.399 18.886C169.631 18.886 169.85 19.7818 169.85 20.705V26.2434H175.201V20.2356C175.201 17.5692 173.826 15.7918 170.224 15.7918L170.223 15.7932ZM78.109 15.7932C77.1938 15.8247 76.3133 16.0426 75.5809 16.4189C74.8484 16.7952 74.2975 17.3127 73.999 17.9047C73.696 18.3673 73.612 18.7329 73.366 18.7329C73.02 18.7329 73.268 18.4152 72.985 17.7106C72.769 17.1311 72.2622 16.6217 71.553 16.2713C70.8437 15.9209 69.9771 15.7517 69.104 15.7932C66.596 15.7932 65.522 17.2412 65.013 18.0366C64.665 18.5805 64.664 18.7322 64.396 18.7322C64.008 18.7322 64.33 18.3004 64.504 17.792C64.7126 17.2143 64.7405 16.6131 64.586 16.0276H60.61V26.2434H66.037V21.1608C66.037 20.1583 66.651 18.886 67.703 18.886C68.918 18.886 69.162 19.5242 69.162 20.705V26.2462H74.611V21.1608C74.611 20.2684 75.144 18.886 76.285 18.886C77.517 18.886 77.736 19.7818 77.736 20.705V26.2434H83.087V20.2356C83.087 17.5692 81.712 15.7918 78.11 15.7918L78.109 15.7932ZM144.839 14.3138C144.839 13.4956 146.326 12.8323 148.161 12.8323C149.996 12.8323 151.483 13.4956 151.483 14.3138C151.483 15.132 149.996 15.7953 148.161 15.7953C146.326 15.7953 144.839 15.132 144.839 14.3138ZM103.378 16.4068C104.311 16.4376 105.24 16.3124 106.086 16.0419V26.2462H100.659V16.0419L103.378 16.4068ZM100.035 14.3138C100.035 13.4956 101.522 12.8323 103.357 12.8323C105.192 12.8323 106.679 13.4956 106.679 14.3138C106.679 15.132 105.192 15.7953 103.357 15.7953C101.522 15.7953 100.035 15.132 100.035 14.3138Z" fill="black"/>
<path d="M15.5456 21.1699C15.1498 21.1563 14.7531 21.1746 14.3636 21.2245C13.7139 21.2962 13.0915 21.4554 12.5327 21.6931C11.9739 21.9307 11.4899 22.242 11.1089 22.6087C10.728 22.9755 10.4576 23.3904 10.3136 23.8292C10.1696 24.2681 10.1548 24.7221 10.2702 25.1649C10.5534 26.991 13.4025 28.5309 16.04 28.5767C16.3107 28.5814 16.5814 28.5691 16.8488 28.54C19.7029 28.2243 20.4502 26.2146 19.9798 24.2405C19.4483 22.0116 17.1236 21.2259 15.5456 21.1699ZM18.3422 26.4507C18.2217 26.5739 18.0545 26.6725 17.8584 26.7358C17.6623 26.7992 17.4447 26.8249 17.2288 26.8103C16.8494 26.7898 16.4955 26.6714 16.2389 26.4793C15.9824 26.2872 15.8423 26.0356 15.847 25.7755C15.8404 25.4289 15.9382 25.0851 16.1343 24.7655C16.2567 24.5624 16.2685 24.3361 16.1674 24.1276C16.0664 23.9191 15.8592 23.7423 15.5836 23.6293C15.2449 23.4858 14.8385 23.4366 14.4483 23.4919C14.0704 23.5415 13.7365 23.6911 13.5193 23.9082C13.3726 24.0702 13.2581 24.2448 13.1788 24.4274C13.1633 24.4594 13.1511 24.4844 13.1418 24.5008C13.0124 24.7261 12.8061 24.792 12.6665 24.7798C12.6152 24.7734 12.5676 24.757 12.5294 24.7326C12.4913 24.7081 12.4643 24.6768 12.4515 24.6421C12.3792 24.3413 12.4131 24.033 12.5505 23.7429C12.6878 23.4528 12.9247 23.1894 13.2413 22.9746C13.517 22.7866 13.852 22.644 14.2205 22.5578C14.5891 22.4716 14.9816 22.444 15.3681 22.4772C15.774 22.5105 16.162 22.6108 16.4984 22.7695C16.8349 22.9282 17.1097 23.1405 17.2993 23.388C17.4816 23.6859 17.5554 24.0096 17.5142 24.3313C17.473 24.653 17.3182 24.963 17.0629 25.2348C17.0306 25.2818 17.0011 25.3248 16.9758 25.3633C16.884 25.4697 16.8334 25.5904 16.8286 25.7139C16.8238 25.8375 16.8651 25.9598 16.9486 26.0694C17.022 26.1363 17.1179 26.1901 17.2281 26.2263C17.3384 26.2626 17.4597 26.2802 17.582 26.2777C17.6987 26.2767 17.8149 26.2661 17.9279 26.2461C18.0745 26.224 18.2261 26.2012 18.3183 26.2762C18.349 26.2998 18.3678 26.3294 18.3721 26.3608C18.3764 26.3922 18.3659 26.4236 18.3422 26.4507V26.4507Z" fill="white"/>
<path d="M52.018 30.1954C52.6134 29.1628 52.9577 28.0707 53.0371 26.9621C53.0371 25.5993 51.9079 25.0343 51.1888 25.0343C51.1668 24.9817 51.0246 24.6263 50.8287 24.1985C50.7167 23.9505 50.5838 23.707 50.4306 23.4694C51.0191 22.9139 51.2681 22.2237 51.125 21.5449C51.0073 21.0216 50.6431 20.5387 50.0877 20.1694C49.0334 19.5579 47.7754 19.1327 46.4243 18.9313C46.2207 18.8925 45.5498 18.7668 45.4909 18.7545C45.4862 18.7282 45.4419 17.2531 45.4014 16.6198C45.384 15.9848 45.2455 15.354 44.9894 14.7435C44.6711 13.8673 44.0132 13.0659 43.0848 12.4236C45.4093 10.7794 46.8603 8.96832 46.8568 7.41462C46.8502 4.42662 41.4724 3.52242 34.8452 5.39502C34.838 5.39712 33.4508 5.79837 33.441 5.80182C33.4348 5.79762 30.9024 4.10232 30.8644 4.07952C23.3085 -0.417517 -0.316103 17.5006 7.23717 21.8524L8.88786 22.8066C8.44242 23.6222 8.28516 24.4981 8.42886 25.3631C8.6526 26.6216 9.56293 27.776 10.978 28.5958C12.3515 29.4476 14.126 29.9351 15.9802 29.9701C18.9195 34.592 25.6352 37.4273 33.5097 37.5869C41.9565 37.7581 49.0471 35.0536 52.018 30.1954ZM53.7518 24.7257C54.4754 25.3638 54.8477 26.1554 54.8036 26.9621C54.7276 28.2205 54.3425 29.4611 53.6645 30.6322L53.6485 30.6596C52.1157 33.1783 49.4397 35.2939 46.0145 36.6947C42.4496 38.1116 38.3878 38.8394 34.2641 38.8002H34.2632C33.9963 38.8002 33.7253 38.7973 33.4573 38.7919C29.3874 38.7338 25.4144 37.9324 21.9507 36.4709C18.9018 35.1654 16.4345 33.314 14.8166 31.1179C12.9527 30.9201 11.2125 30.3575 9.80652 29.4982C8.05845 28.4777 6.93865 27.0438 6.67111 25.4834C6.55188 24.7253 6.6162 23.9589 6.86149 23.215L6.09517 22.7722C5.47488 22.4061 4.9708 21.9572 4.61394 21.453C4.25709 20.9488 4.05502 20.4 4.02017 19.8404C3.95729 18.6789 4.25106 17.5213 4.88256 16.4421C6.45564 13.5073 10.0744 10.0127 14.5636 7.0939C16.5668 5.76553 18.7891 4.60063 21.1856 3.6226C23.1845 2.74898 25.4802 2.2437 27.8495 2.15592C29.3776 2.12868 30.866 2.4905 32.0256 3.1711C32.0918 3.21055 33.0838 3.87356 33.8363 4.37725C34.0251 4.3228 34.161 4.28363 34.1649 4.2826C36.391 3.62001 38.7834 3.25723 41.2106 3.21415C45.7081 3.21415 48.6177 4.8622 48.6234 7.4128C48.627 8.9866 47.4962 10.7509 45.4115 12.4588C45.9787 13.0581 46.4078 13.7133 46.6837 14.4016C46.9798 15.1062 47.142 15.8339 47.1662 16.5668C47.1864 16.8822 47.2071 17.3881 47.2238 17.8347C48.7618 18.1007 50.183 18.6164 51.3669 19.3381C52.1695 19.8822 52.6958 20.5878 52.8688 21.3512C53.0426 22.1049 52.8722 22.8768 52.3808 23.5618C52.4245 23.6476 52.47 23.7408 52.5153 23.8395C52.5546 23.9256 52.5918 24.0085 52.6265 24.0873C53.0594 24.2474 53.4418 24.4643 53.7518 24.7257H53.7518Z" fill="white"/>
<path d="M48.3973 23.2334C48.6838 23.0494 48.9072 22.8245 49.0516 22.5746C49.196 22.3248 49.2578 22.0562 49.2326 21.7881C49.1753 21.5179 48.9908 21.2678 48.707 21.0756C47.8744 20.6033 46.8837 20.2791 45.8233 20.132C45.3389 20.0381 45.0103 19.9779 44.6562 19.8974C44.0266 19.7542 43.7154 19.6389 43.645 18.821C43.6142 18.4633 43.5239 17.2172 43.4914 16.7023C43.434 15.8 43.2767 14.5667 42.1692 14.0575C41.8875 13.9298 41.5599 13.8574 41.2221 13.8484C41.033 13.8404 40.8432 13.8533 40.6601 13.8864C40.0979 13.9761 39.5863 14.1759 39.1878 14.4613C38.6719 14.7832 38.0636 15.0283 37.4016 15.181C36.7397 15.3337 36.0384 15.3906 35.3425 15.3482C34.5673 15.3257 33.7459 15.2424 32.8042 15.2038C32.6209 15.1964 32.4372 15.1886 32.2537 15.1819C31.0369 15.2065 29.8736 15.5291 28.9758 16.0909C28.0781 16.6528 27.5059 17.4164 27.3634 18.2426C26.8243 20.8051 29.5103 22.1293 30.2857 22.9063C30.4056 23.0055 30.4799 23.1267 30.4991 23.2547C30.479 23.3966 30.3803 23.5279 30.2231 23.6217L30.2233 23.6225C29.1495 24.4485 28.3956 25.4451 28.0305 26.5215C27.6653 27.5978 27.7005 28.7195 28.1329 29.7841C28.2354 30.0398 28.3668 30.2896 28.5259 30.5314C30.4858 33.6957 36.5659 35.1693 42.5059 33.8291C43.284 33.6535 44.0389 33.4331 44.7625 33.1703C46.0649 32.7255 47.2363 32.1207 48.2183 31.3862C49.7504 30.3243 50.7566 28.9609 51.0954 27.4879C51.2744 26.6724 51.0123 26.3568 50.6556 26.205C50.4037 26.1081 50.1118 26.0713 49.8258 26.1004C49.6747 25.4602 49.4093 24.835 49.0356 24.239L48.3973 23.2334Z" fill="white"/>
<path d="M38.6629 11.0125C38.7587 11.0275 38.8196 10.9144 38.7339 10.8815C37.3148 10.379 35.7496 10.0991 34.1522 10.0622C34.1369 10.0621 34.1219 10.059 34.1089 10.0534C34.0959 10.0478 34.0855 10.0398 34.0787 10.0304C34.0719 10.021 34.0691 10.0105 34.0705 10C34.0719 9.98957 34.0775 9.97959 34.0867 9.97119C34.335 9.74941 34.6249 9.55091 34.9489 9.38079C34.9634 9.37309 34.9739 9.36242 34.9789 9.35034C34.9839 9.33826 34.9831 9.3254 34.9767 9.31365C34.9702 9.3019 34.9584 9.29187 34.943 9.28503C34.9276 9.27819 34.9094 9.2749 34.8911 9.27563C32.9352 9.40691 31.0549 9.85987 29.411 10.5958C29.397 10.6023 29.3805 10.6057 29.3635 10.6057C29.3466 10.6056 29.3301 10.6022 29.3162 10.5956C29.3022 10.5891 29.2914 10.5799 29.2852 10.5692C29.279 10.5584 29.2776 10.5466 29.2813 10.5354C29.4137 10.1979 29.6086 9.87339 29.8612 9.56965C29.8695 9.55923 29.8727 9.54725 29.8704 9.53548C29.868 9.52372 29.8601 9.51279 29.848 9.50431C29.8358 9.49582 29.82 9.49023 29.8028 9.48836C29.7856 9.48648 29.768 9.48843 29.7526 9.4939C27.3787 10.3849 25.263 11.5646 23.5095 12.9751C23.4958 12.9858 23.4884 12.9996 23.4886 13.0139C23.4888 13.0281 23.4967 13.0418 23.5107 13.0524C23.5247 13.0629 23.544 13.0695 23.5647 13.071C23.5854 13.0725 23.6062 13.0688 23.6232 13.0604C25.6552 12.0902 27.9444 11.3997 30.3628 11.0276C33.0928 10.5973 35.9295 10.5921 38.6628 11.0125" fill="white"/>
<path d="M31.6712 6.4354C31.6712 6.4354 29.6147 4.8085 28.994 4.6885C25.1747 3.98425 16.9245 7.86668 11.6568 12.9961C9.52537 15.0715 6.47416 18.7468 7.93316 20.6371C8.45174 21.0615 9.03632 21.4462 9.67661 21.7842C10.6542 20.8479 12.1254 20.2074 13.7804 19.9977C15.8573 16.0298 19.5033 12.533 24.3131 9.8956C26.6212 8.60481 29.0824 7.44742 31.6712 6.4354Z" fill="white"/>
<path d="M18.2039 26.3801C18.2336 26.4047 18.2516 26.4347 18.2558 26.4664C18.2599 26.4981 18.2499 26.5298 18.2271 26.5575C18.1163 26.6805 17.9574 26.7798 17.7683 26.8443C17.5792 26.9089 17.3676 26.936 17.1571 26.9228C16.7821 26.8952 16.4364 26.7713 16.1899 26.5762C15.9434 26.3811 15.8144 26.1294 15.8291 25.8718C15.8228 25.5208 15.9166 25.1723 16.1052 24.8458C16.2243 24.6413 16.2368 24.4149 16.1404 24.2048C16.0441 23.9947 15.8449 23.8137 15.5762 23.6921C15.4172 23.6202 15.2388 23.5708 15.0514 23.5469C14.864 23.5229 14.6715 23.5248 14.4852 23.5525C14.3027 23.5788 14.1297 23.6297 13.9765 23.7023C13.8232 23.7748 13.6927 23.8676 13.5926 23.9752C13.4511 24.1407 13.3411 24.3179 13.2653 24.5025C13.2506 24.535 13.2388 24.5605 13.2299 24.577C13.1055 24.8061 12.9074 24.8729 12.7731 24.8606C12.7096 24.8546 12.6223 24.8256 12.5664 24.7207C12.4961 24.4176 12.528 24.1075 12.6596 23.814C12.7911 23.5205 13.0188 23.2514 13.3255 23.0271C13.583 22.8381 13.9027 22.6937 14.258 22.6059C14.6134 22.5181 14.9942 22.4894 15.3691 22.5221C15.7662 22.5594 16.1435 22.6634 16.4674 22.8248C16.7912 22.9862 17.0514 23.2 17.2247 23.4469C17.4001 23.7505 17.4709 24.0776 17.4316 24.4029C17.3923 24.7282 17.2438 25.0429 16.9978 25.3226C16.9667 25.3702 16.9382 25.4138 16.9142 25.4533C16.8257 25.5626 16.7771 25.6848 16.7726 25.8096C16.768 25.9345 16.8076 26.0582 16.8879 26.1704C16.9559 26.2373 17.047 26.2916 17.1532 26.3285C17.2594 26.3654 17.3774 26.3837 17.4965 26.3818C17.6088 26.3807 17.7204 26.3699 17.8287 26.3497C17.9697 26.3271 18.1154 26.304 18.2039 26.3801L18.2039 26.3801ZM52.9611 26.9731C52.8823 28.0791 52.5404 29.1689 51.9487 30.1997C48.9971 35.0476 41.953 37.7465 33.5615 37.5757C25.7388 37.4164 19.0668 34.587 16.1467 29.9748C14.3033 29.9395 12.5397 29.4528 11.1775 28.6034C9.77036 27.7836 8.86624 26.632 8.64501 25.3775C8.50222 24.5144 8.65843 23.6405 9.10101 22.8263L7.46108 21.8741C-0.0426397 17.5314 23.427 -0.349061 30.9336 4.13863C30.9715 4.16122 33.4871 5.85311 33.4934 5.85728C33.5034 5.85379 34.8814 5.45328 34.8884 5.45132C41.4722 3.58262 46.8148 4.4849 46.8215 7.46648C46.825 9.01708 45.3834 10.8244 43.0743 12.465C43.9972 13.1068 44.6506 13.9064 44.9661 14.78C45.2207 15.3894 45.3583 16.0189 45.3755 16.6526C45.4156 17.2844 45.4599 18.7565 45.4644 18.7828C45.523 18.7949 46.1895 18.9203 46.3916 18.9592C47.7349 19.1605 48.9849 19.5849 50.0311 20.1947C50.5834 20.5638 50.9451 21.0455 51.0617 21.5673C51.204 22.2443 50.9568 22.9327 50.3719 23.4877C50.5241 23.7249 50.6562 23.9678 50.7675 24.2154C50.9618 24.6424 51.1032 24.9968 51.1249 25.0493C51.8393 25.0493 52.9612 25.613 52.9612 26.9731L52.9611 26.9731ZM19.8003 24.3129C19.29 22.0491 17.0558 21.2512 15.5398 21.1943C15.1592 21.1805 14.7777 21.1991 14.4039 21.2497C11.698 21.6239 10.1698 23.2015 10.4705 25.2515C10.6895 26.1711 11.3559 27.0133 12.3619 27.6421C13.3679 28.2709 14.6548 28.6495 16.0147 28.7167C16.2749 28.7215 16.5352 28.7089 16.7919 28.6793C19.5344 28.3587 20.2524 26.3177 19.8003 24.3129ZM24.4252 9.94236C26.7173 8.65471 29.1624 7.49974 31.735 6.48943C31.735 6.48943 29.6923 4.86602 29.0754 4.74638C25.2812 4.04338 17.0849 7.91773 11.8518 13.0363C9.73437 15.1074 6.70318 18.7751 8.15245 20.6613C8.66731 21.0847 9.24809 21.4685 9.88453 21.806C10.8535 20.8727 12.3155 20.2335 13.9615 20.0233C16.0209 16.0675 19.6425 12.5783 24.4252 9.94236ZM32.6716 27.8567C32.7721 28.1576 32.9898 28.4343 33.3014 28.6576C33.6131 28.8809 34.0073 29.0426 34.4423 29.1255C34.8949 29.2407 35.3618 29.3276 35.8373 29.3851C41.8391 30.0927 47.45 27.7407 48.7133 27.1483C48.8082 27.1038 48.8708 27.1472 48.7947 27.2257C48.7567 27.2675 48.7154 27.3078 48.671 27.3466C47.1249 28.7135 42.9683 30.2965 37.5605 30.2959C35.202 30.2957 32.8446 29.7261 31.9791 28.851C30.6362 27.4932 31.9126 25.5112 34.1501 25.7177C34.1527 25.718 34.9157 25.7773 35.1302 25.7936C38.6084 26.0222 42.1142 25.6376 45.313 24.6767C48.3658 23.7054 49.519 22.6365 49.346 21.7712C49.2882 21.5024 49.1033 21.254 48.8197 21.0637C47.9848 20.5941 46.9936 20.2723 45.9335 20.1267C45.4487 20.0334 45.1197 19.9739 44.7652 19.8938C44.1351 19.7516 43.8236 19.6371 43.753 18.8249C43.7223 18.4697 43.632 17.2323 43.5992 16.7209C43.5416 15.8249 43.3845 14.6002 42.2757 14.0945C41.9934 13.9676 41.6656 13.8958 41.3279 13.8869C41.1386 13.879 40.9486 13.8918 40.7652 13.9247C40.2035 14.0135 39.6916 14.2118 39.2917 14.4956C38.7735 14.8157 38.1641 15.0591 37.5017 15.2106C36.8394 15.3622 36.1383 15.4186 35.4426 15.3763C34.6667 15.3541 33.8446 15.2713 32.9021 15.2329C32.7188 15.2255 32.5347 15.2177 32.3509 15.2113C31.1375 15.233 29.9758 15.5519 29.0774 16.1097C28.179 16.6675 27.6036 17.4272 27.456 18.2506C26.9164 20.7952 29.605 22.1102 30.3812 22.8818C30.5011 22.98 30.5755 23.1005 30.5948 23.2278C30.5744 23.3689 30.4755 23.4993 30.3185 23.5922V23.593C29.2449 24.4103 28.4903 25.3995 28.1246 26.469C27.7589 27.5385 27.7939 28.6538 28.2263 29.7116C28.3289 29.9656 28.4604 30.2138 28.6196 30.4538C30.5814 33.596 36.6672 35.0592 42.6128 33.7282C43.3913 33.554 44.1469 33.3353 44.8717 33.0744C46.1736 32.6334 47.3461 32.0328 48.3307 31.3025C49.862 30.2509 50.8696 28.8964 51.2105 27.4314C51.3895 26.6214 51.1275 26.3082 50.7703 26.1574C50.5177 26.0613 50.2258 26.0247 49.9397 26.0534C49.7883 25.4174 49.5227 24.7965 49.1489 24.2049C47.4508 25.0805 45.5312 25.7349 43.4863 26.1353C41.0258 26.6103 38.4663 26.8 35.914 26.6965C34.2721 26.6055 33.1858 26.277 32.7772 27.1871C35.2609 27.7546 37.898 27.9385 40.4982 27.7254C40.5165 27.7241 40.535 27.7253 40.5526 27.7289C40.5702 27.7325 40.5866 27.7385 40.6009 27.7465C40.6151 27.7544 40.6269 27.7642 40.6356 27.7753C40.6443 27.7864 40.6496 27.7985 40.6514 27.811C40.6542 27.832 40.6473 27.8531 40.6318 27.8714C40.6163 27.8896 40.5928 27.9041 40.5648 27.9128C40.5648 27.9128 37.515 28.8834 32.6716 27.8567ZM23.7398 13.1005C25.7569 12.1328 28.0314 11.4437 30.4353 11.0721C33.1471 10.6427 35.9659 10.6375 38.6811 11.0569C38.7761 11.0718 38.8367 10.959 38.7517 10.9264C37.3427 10.4251 35.7874 10.1456 34.1998 10.1086C34.1845 10.1084 34.1696 10.1053 34.1567 10.0997C34.1438 10.0941 34.1334 10.0862 34.1267 10.0768C34.1199 10.0674 34.1171 10.0569 34.1185 10.0465C34.12 10.0361 34.1255 10.0262 34.1347 10.0178C34.3813 9.79663 34.6694 9.59853 34.9915 9.42862C35.0059 9.42092 35.0164 9.41028 35.0213 9.39824C35.0263 9.3862 35.0255 9.37339 35.0191 9.36167C35.0127 9.34996 35.0009 9.33995 34.9856 9.3331C34.9703 9.32626 34.9522 9.32293 34.9339 9.32361C32.9898 9.45495 31.1214 9.90707 29.4896 10.6411C29.4757 10.6475 29.4592 10.651 29.4424 10.6509C29.4256 10.6509 29.4091 10.6474 29.3952 10.6409C29.3813 10.6344 29.3706 10.6252 29.3645 10.6145C29.3583 10.6038 29.3571 10.5921 29.3608 10.5808C29.4923 10.2442 29.6858 9.92042 29.9368 9.6172C29.9452 9.60683 29.9484 9.59491 29.9461 9.58318C29.9437 9.57146 29.936 9.56056 29.9239 9.55208C29.9118 9.54361 29.8961 9.538 29.879 9.53609C29.8619 9.53418 29.8444 9.53607 29.829 9.54147C27.4691 10.4316 25.3671 11.609 23.6268 13.0156C23.6132 13.0263 23.6058 13.04 23.606 13.0541C23.6062 13.0683 23.614 13.0819 23.628 13.0924C23.6419 13.1029 23.661 13.1095 23.6816 13.111C23.7022 13.1125 23.7229 13.1087 23.7398 13.1005ZM39.5446 21.7382C39.7089 21.8093 39.9057 21.8365 40.0975 21.8147C40.2893 21.793 40.4626 21.7237 40.5844 21.6201C40.7358 21.4199 40.516 21.1483 40.0933 21.0135C39.929 20.9424 39.7321 20.9152 39.5403 20.937C39.3485 20.9589 39.1752 21.0282 39.0535 21.1318C38.9019 21.3319 39.1219 21.6034 39.5446 21.7382ZM40.8413 18.4914C40.9427 18.8519 41.1615 19.1922 41.4815 19.487C41.8121 19.4593 42.1464 19.4593 42.4771 19.487C42.6704 19.0913 42.6873 18.6653 42.5257 18.263C42.2868 17.5208 41.9634 17.0716 41.2952 17.1414C40.6272 17.2114 40.6025 17.7492 40.8413 18.4914ZM42.2628 20.1965C42.0942 20.1634 41.9148 20.1673 41.7497 20.2075C41.5846 20.2477 41.442 20.3223 41.3421 20.4208C41.2422 20.5192 41.1899 20.6365 41.1926 20.7563C41.1954 20.8761 41.2529 20.9923 41.3573 21.0886C41.4616 21.1848 41.6074 21.2564 41.7743 21.2931C41.9412 21.3298 42.1207 21.3299 42.2876 21.2933C42.4546 21.2567 42.6005 21.1853 42.705 21.0891C42.8095 20.9929 42.8672 20.8767 42.8701 20.7569C42.8943 20.628 42.8447 20.4977 42.7314 20.3932C42.6182 20.2887 42.4503 20.2182 42.2628 20.1965Z" fill="black"/>
<path d="M31.1694 20.1301C31.0628 20.1199 31.0174 20.0887 31.004 20.0474C30.9626 19.9194 31.2508 19.7087 31.5546 19.5565C31.998 19.335 32.5173 19.1952 33.0626 19.1505C33.6079 19.1057 34.1609 19.1576 34.6684 19.3011C35.1426 19.4348 35.5503 19.659 35.8428 19.947C35.9514 20.0681 35.9724 20.162 35.9022 20.2112C35.7928 20.29 35.5138 20.1997 35.0596 20.0636C34.514 19.8806 33.911 19.7919 33.3036 19.8051C32.5838 19.8861 31.8713 19.9946 31.1694 20.1301ZM35.6964 20.767C35.5001 20.626 35.2558 20.5205 34.9852 20.4599C34.7146 20.3993 34.4263 20.3855 34.146 20.4197C33.7326 20.4498 33.341 20.5613 33.0188 20.7408C32.8686 20.8144 32.7654 20.9245 32.7304 21.0485C32.7296 21.0623 32.7332 21.0761 32.741 21.0888C32.7488 21.1015 32.7606 21.1129 32.7756 21.1222C32.8022 21.1387 32.837 21.1478 32.873 21.1475C33.0217 21.1326 33.1671 21.105 33.3058 21.0655C33.913 20.9091 34.5691 20.8625 35.2104 20.9303C35.5076 20.9531 35.648 20.9658 35.7132 20.8961C35.7299 20.876 35.7373 20.8529 35.7343 20.8298C35.7313 20.8067 35.718 20.7848 35.6964 20.767Z" fill="black"/>
<path d="M34.8548 20.9531C35.0424 20.497 35.0531 20.0155 34.886 19.5557C34.6442 18.8123 34.2787 18.3875 33.6011 18.4575C32.9236 18.5275 32.906 19.1265 33.1244 19.873C33.2248 20.2151 33.4204 20.5409 33.7006 20.8326C34.2397 21.3467 34.6053 21.2136 34.8538 20.9531L34.8548 20.9531Z" fill="black"/>
</g>
<defs>
<filter id="filter0_d" x="0" y="0" width="196" height="49" filterUnits="userSpaceOnUse" color-interpolation-filters="sRGB">
<feFlood flood-opacity="0" result="BackgroundImageFix"/>
<feColorMatrix in="SourceAlpha" type="matrix" values="0 0 0 0 0 0 0 0 0 0 0 0 0 0 0 0 0 0 127 0"/>
<feOffset dy="4"/>
<feGaussianBlur stdDeviation="2"/>
<feColorMatrix type="matrix" values="0 0 0 0 0 0 0 0 0 0 0 0 0 0 0 0 0 0 0.25 0"/>
<feBlend mode="normal" in2="BackgroundImageFix" result="effect1_dropShadow"/>
<feBlend mode="normal" in="SourceGraphic" in2="effect1_dropShadow" result="shape"/>
</filter>
</defs>
</svg>
