<svg width="99" height="28" viewBox="0 0 99 28" fill="none" xmlns="http://www.w3.org/2000/svg">
<path fill-rule="evenodd" clip-rule="evenodd" d="M19.4602 13.2223H20.0747C20.1771 13.0149 20.1771 12.6001 20.0747 12.1334C19.9723 11.4593 19.7674 11.0964 19.409 11.0964C18.9993 11.2001 18.9993 11.6667 19.1529 12.3408C19.2041 12.7038 19.3578 13.0149 19.5114 13.2223H19.4602ZM16.2339 13.7408C16.4899 13.8964 16.6436 13.9482 16.746 13.8964L16.6948 13.6371C16.5411 13.4297 16.2851 13.2223 15.9778 13.1186C15.6709 12.9857 15.3355 12.935 15.0036 12.9714C14.6718 13.0077 14.3548 13.1298 14.083 13.326C13.9294 13.4297 13.7245 13.6371 13.7757 13.7408L13.8782 13.7927C14.0318 13.7927 14.5439 13.5853 15.1584 13.5334C15.5681 13.5334 15.9266 13.6371 16.1827 13.7408H16.2339ZM15.6706 14.1038C15.3121 14.1038 15.1584 14.2593 15.0048 14.363L14.8 14.6223V14.726H14.9024L15.1584 14.6741C15.6706 14.4667 15.9778 14.5186 16.2851 14.5186H16.5924V14.4149C16.5411 14.2593 16.1315 14.0001 15.6706 14.1038ZM18.3847 15.2445C18.6408 15.3482 18.8969 15.3482 18.9993 15.1408C19.0505 14.9853 18.9481 14.726 18.692 14.6223C18.4872 14.4667 18.1799 14.5186 18.1287 14.726C18.0263 14.8815 18.1287 15.1408 18.3847 15.2445ZM19.9211 13.8445C19.7674 13.8445 19.6138 14.1038 19.5626 14.363C19.5626 14.6223 19.7162 14.8815 19.9211 14.8815C20.1259 14.8815 20.2796 14.6223 20.2796 14.363C20.2796 14.1038 20.1259 13.8445 19.9723 13.8445H19.9211ZM6.55499 18.7704C6.45257 18.7704 6.40135 18.8223 6.35014 18.7704C6.28655 18.7831 6.2209 18.7803 6.15858 18.7623C6.09626 18.7442 6.03906 18.7115 5.99167 18.6667V18.0445L6.09409 17.9408C6.24772 17.5778 6.50378 17.0075 6.19651 16.3853C6.09752 16.1886 5.95236 16.0196 5.77378 15.893C5.5952 15.7664 5.38865 15.6862 5.17229 15.6593C4.7626 15.6075 4.3017 15.763 4.04564 16.0741C3.58474 16.5927 3.53353 17.2149 3.63596 17.4741L3.73838 17.5778C3.78959 17.5778 3.94322 17.526 3.99443 17.3186C3.99443 17.163 4.09686 17.0075 4.19928 16.8001C4.3017 16.6445 4.45533 16.5408 4.71139 16.489C4.91623 16.489 5.12108 16.489 5.27471 16.5927C5.58198 16.8001 5.6844 17.2149 5.58198 17.5778C5.53077 17.7334 5.37713 18.0964 5.42834 18.4075C5.42834 18.9778 5.83803 19.2371 6.1453 19.2371C6.45256 19.2371 6.65741 19.0815 6.75983 18.9778V18.8223C6.70862 18.7704 6.6062 18.8223 6.55499 18.8223V18.7704ZM24.991 19.7038C24.7349 20.8964 24.2228 21.9334 23.3522 22.8149C22.8401 23.4371 22.1744 23.9556 21.4574 24.3186L20.2283 24.8371C16.9508 25.926 13.5709 24.7334 12.4955 22.1408C12.124 21.2208 12.0135 20.214 12.1763 19.2339C12.3392 18.2537 12.769 17.339 13.4173 16.5927L13.5709 16.2815L13.4685 16.0223C13.0076 15.3482 11.5225 14.3112 11.8297 12.1853C12.0346 10.7334 13.3661 9.64451 14.5439 9.69636H14.8512L16.2339 9.85192C16.9508 9.85192 17.6166 9.80007 18.3847 9.12599C18.6408 8.91859 18.8456 8.71118 19.2041 8.65933H19.5114C19.665 8.65933 19.8699 8.65933 20.0235 8.81488C20.638 9.2297 20.7405 10.2149 20.7405 10.9408L20.8429 12.6519C20.8429 13.326 21.0477 13.4297 21.355 13.5334L22.0207 13.7408C22.6237 13.8539 23.1879 14.1217 23.6595 14.5186C23.8131 14.726 23.9155 14.8815 23.9155 15.089C24.018 15.8149 23.4034 16.6445 21.7135 17.4741C19.946 18.2697 18.006 18.5911 16.0802 18.4075L15.5681 18.3038C14.2879 18.1482 13.6221 19.8075 14.3391 20.8964C14.8512 21.6223 16.1315 22.089 17.4117 22.089C20.4332 22.089 22.6865 20.7927 23.5571 19.6519L23.6083 19.5482C23.6595 19.4964 23.6083 19.4445 23.6083 19.5482C22.8913 19.963 19.7674 21.9334 16.4387 21.3112C16.4387 21.3112 16.0802 21.3112 15.7218 21.1038C15.4145 21.0001 14.8 20.7408 14.6975 20.0667C17.4117 20.8964 19.1017 20.1186 19.1017 20.1186V20.0667L19.0505 19.963C19.0505 19.963 16.8484 20.326 14.8 19.5482C15.0048 18.7704 15.6193 19.0297 16.4899 19.1334C18.1287 19.2371 19.6138 18.9778 20.6892 18.6667C21.611 18.4075 22.8401 17.8371 23.8131 17.1112C24.1204 17.7852 24.274 18.6149 24.274 18.6149C24.274 18.6149 24.5301 18.563 24.7349 18.6667C24.8885 18.8223 25.0422 19.0815 24.9398 19.7038H24.991ZM9.73007 7.88155C10.7543 6.6371 12.0346 5.60007 13.1612 5.0297H13.2124L12.9052 5.85933C12.9052 5.91118 12.9052 5.96303 12.9564 5.91118C13.6733 5.39266 14.9024 4.87414 15.9778 4.87414C15.9778 4.87414 16.029 4.87414 15.9778 4.92599C15.8018 5.07702 15.6468 5.25144 15.5169 5.44451H15.5681C16.3363 5.44451 17.4117 5.75562 18.1287 6.17044C18.1287 6.17044 18.1287 6.27414 18.0263 6.27414C16.6223 5.94874 15.1661 5.92836 13.7537 6.21437C12.3413 6.50038 11.0049 7.08626 9.8325 7.9334C9.73007 7.9334 9.67886 7.9334 9.73007 7.88155ZM4.40412 13.5853C3.48825 13.7702 2.6798 14.3097 2.15083 15.089C1.79386 14.8147 1.46758 14.5017 1.17782 14.1556C0.409658 12.6001 2.04841 9.59266 3.22627 7.88155C6.1453 3.7334 10.6519 0.518587 12.8027 1.08896C13.11 1.19266 14.2366 2.48896 14.2366 2.48896C14.2366 2.48896 12.1882 3.68155 10.2422 5.34081C7.59298 7.51152 5.58987 10.3833 4.45533 13.6371L4.40412 13.5853ZM5.94045 20.689H5.53077C4.14807 20.689 2.61173 19.3927 2.4581 17.889C2.30447 16.2297 3.12385 14.9334 4.66018 14.6223C4.86221 14.58 5.06855 14.5626 5.27471 14.5704C6.09409 14.5704 7.32315 15.2445 7.63042 17.163C7.88647 18.7186 7.47679 20.4297 5.94045 20.689ZM24.8885 17.7334L24.7349 17.0593L24.4789 16.4371C24.7909 16.046 24.9435 15.549 24.9054 15.0478C24.8673 14.5465 24.6414 14.0789 24.274 13.7408C23.7028 13.2338 23.0168 12.8775 22.2768 12.7038L21.7647 12.6001V10.8371C21.7647 10.4741 21.7135 9.90377 21.5086 9.28155C21.3339 8.57949 20.9808 7.93594 20.4844 7.41488C21.7647 6.06673 22.5328 4.56303 22.5328 3.26673C22.5328 0.88155 19.5626 0.155624 15.9266 1.71118L15.1584 1.97044L13.827 0.570439C9.67886 -3.05919 -3.27754 11.563 0.870558 15.089L1.74115 15.9186C1.51573 16.5847 1.44562 17.2946 1.5363 17.9927C1.65623 19.0176 2.14923 19.9605 2.919 20.6371C3.661 21.332 4.62328 21.7364 5.63319 21.7778C6.47351 23.6453 7.82975 25.2265 9.53817 26.3307C11.2466 27.4348 13.2341 28.0146 15.2609 28.0001C19.8699 28.1556 23.8131 25.926 25.4007 21.9334C25.5031 21.6741 25.964 20.3778 25.964 19.3408C25.964 18.2001 25.3494 17.7334 24.9398 17.7334H24.8885ZM94.2283 16.5408C93.6138 16.5408 93.1017 15.7112 93.1017 14.5704C93.1017 13.4297 93.6138 12.5482 94.2283 12.5482C94.9965 12.5482 95.3038 13.2741 95.3038 14.5704C95.3038 15.8667 94.9965 16.5408 94.2795 16.5408H94.2283ZM92.6408 11.8741C92.4359 12.289 92.436 12.3927 92.3335 12.3927C92.1287 12.3927 92.2823 12.0815 92.3335 11.7186C92.5384 10.9408 92.436 10.3704 92.436 10.3704H90.3875V20.5853H93.1529V17.2149C93.3308 17.5701 93.6016 17.8691 93.9356 18.0794C94.2697 18.2896 94.6544 18.4031 95.0477 18.4075C97.045 18.4075 98.018 16.6445 98.018 14.2593C98.018 11.6149 96.8401 10.163 94.9965 10.163C93.5626 10.163 92.9481 11.2519 92.6408 11.8741ZM84.6519 11.7704C84.4982 12.1334 84.4982 12.3927 84.3446 12.3927C84.191 12.3927 84.2934 12.0815 84.1398 11.6149C83.9349 10.889 83.4228 10.0593 82.1425 10.0593C80.8622 10.0593 80.2989 11.2519 80.0429 11.8741C79.838 12.289 79.838 12.3927 79.6844 12.3927C79.5308 12.3927 79.6844 12.0815 79.7868 11.6667C79.9405 10.889 79.7868 10.2667 79.7868 10.2667H77.7384V18.3038H80.555V14.3112C80.555 13.5334 80.8623 12.4964 81.4256 12.4964C82.0401 12.4964 82.1937 13.0149 82.1937 13.9482V18.3038H85.0103V14.3112C85.0103 13.5853 85.2664 12.4964 85.8809 12.4964C86.4955 12.4964 86.5979 13.2223 86.5979 13.9482V18.3038H89.3633V13.5853C89.3633 11.5112 88.6463 10.1112 86.8027 10.1112C85.5737 10.1112 84.9591 11.1482 84.6519 11.7704ZM74 18.3038H76.8166V10.3186C76.8166 10.3186 76.3045 10.5778 75.3827 10.5778C74.4609 10.5778 74 10.3186 74 10.3186V18.3038ZM75.3827 7.77784C74.4609 7.77784 73.6415 8.29636 73.6415 8.97044C73.6415 9.59266 74.4609 10.1112 75.3827 10.1112C76.3557 10.1112 77.1238 9.59266 77.1238 8.97044C77.1238 8.29636 76.3557 7.77784 75.3827 7.77784ZM68.1107 11.926C68.0083 12.2371 67.9571 12.4445 67.8546 12.4445C67.6498 12.4445 67.8034 12.0815 67.8546 11.8741C68.0083 11.4593 68.2643 10.3704 68.2643 9.07414C68.2643 8.19266 68.1619 7.88155 68.1619 7.88155H65.755V18.2519H68.5204V14.3112C68.5204 13.6371 68.7764 12.5482 69.5446 12.5482C70.0567 12.5482 70.2616 12.963 70.2616 13.8964V18.3038H73.0782V14.0001C73.0782 11.926 72.7709 10.0593 70.5176 10.0593C68.8789 10.0593 68.2643 11.6149 68.1619 11.926H68.1107ZM60.429 14.2593C60.429 13.5853 61.0436 12.9112 62.2726 12.9112C63.1791 12.9363 64.0627 13.2047 64.8332 13.689V10.9408C64.8332 10.9408 64.0138 10.1112 61.9654 10.1112C59.8657 10.1112 58.0733 11.4075 58.0733 14.1556C58.0733 16.9038 59.6609 18.4593 61.9654 18.4593C63.7578 18.4593 64.8332 17.4223 64.8332 17.4223V14.8297C64.4747 14.9853 63.5529 15.6593 62.2726 15.6593C60.8899 15.6593 60.429 15.0371 60.429 14.2593ZM54.5398 18.3038H57.3052V7.88155H54.5398V18.2519V18.3038ZM50.8014 18.3038H53.618V10.3186C53.618 10.3186 53.1059 10.5778 52.1841 10.5778C51.2623 10.5778 50.8014 10.3186 50.8014 10.3186V18.3038ZM52.2353 7.77784C51.211 7.77784 50.4941 8.29636 50.4941 8.97044C50.4941 9.59266 51.2623 10.1112 52.1841 10.1112C53.1571 10.1112 53.9252 9.59266 53.9252 8.97044C53.9252 8.29636 53.1571 7.77784 52.1841 7.77784H52.2353ZM45.8339 16.3853C45.1681 16.5408 44.8097 16.3853 44.8097 15.8667C44.8097 15.2445 45.4242 14.9853 46.346 14.9853L47.1142 15.0371C47.1142 15.2964 46.5508 16.2297 45.8339 16.3853ZM46.4996 10.1112C44.3488 10.1112 42.8124 10.9408 42.8124 10.9408V13.326C42.8124 13.326 44.5024 12.289 45.8851 12.289C47.0117 12.289 47.1142 12.9112 47.0629 13.4297C47.0629 13.4297 46.7557 13.326 45.7827 13.326C43.5294 13.326 42.3515 14.4149 42.3515 16.126C42.3515 17.7853 43.6318 18.4593 44.7584 18.4593C46.2948 18.4593 47.0629 17.3704 47.2678 16.8001C47.4214 16.4371 47.4214 16.2297 47.5751 16.2297C47.7287 16.2297 47.6775 16.3853 47.6775 16.7482C47.6775 17.3704 47.6775 17.889 47.7799 18.3038H49.8796V14.363C49.8796 11.8741 49.0602 10.1112 46.4996 10.1112ZM37.0256 11.7704C36.8207 12.1334 36.8207 12.3927 36.6671 12.3927C36.5135 12.3927 36.6671 12.1334 36.4623 11.6149C36.3656 11.1579 36.1117 10.7506 35.7459 10.4656C35.38 10.1807 34.926 10.0367 34.465 10.0593C33.1847 10.0593 32.6214 11.2519 32.3654 11.8741C32.1605 12.289 32.1605 12.3927 32.0581 12.3927C31.8533 12.3927 32.0069 12.0815 32.0581 11.6667C32.2629 10.889 32.1093 10.2667 32.1093 10.2667H30.0609V18.3038H32.8775V14.3112C32.8775 13.5334 33.1847 12.4964 33.7481 12.4964C34.3626 12.4964 34.5162 13.0149 34.5162 13.9482V18.3038H37.3328V14.3112C37.3328 13.5853 37.5889 12.4964 38.2034 12.4964C38.818 12.4964 38.9204 13.2223 38.9204 14.0001V18.3556H41.6858V13.6371C41.6858 11.563 40.9688 10.163 39.1252 10.163C37.8962 10.163 37.2816 11.2001 37.0256 11.8223V11.7704Z" fill="#241C15"/>
</svg>
